<?xml version="1.0" standalone="no"?>
<!DOCTYPE svg PUBLIC "-//W3C//DTD SVG 20010904//EN"
 "http://www.w3.org/TR/2001/REC-SVG-20010904/DTD/svg10.dtd">
<svg version="1.0" xmlns="http://www.w3.org/2000/svg"
 width="700.000000pt" height="700.000000pt" viewBox="0 0 700.000000 700.000000"
 preserveAspectRatio="xMidYMid meet">
<metadata>
Created by potrace 1.14, written by Peter Selinger 2001-2017
</metadata>
<g transform="translate(0.000000,700.000000) scale(0.100000,-0.100000)"
fill="#000000" stroke="none">
<path d="M0 3500 l0 -3500 3500 0 3500 0 0 3500 0 3500 -3500 0 -3500 0 0
-3500z m3800 2335 c288 -29 492 -81 753 -189 145 -60 397 -192 397 -207 0 -8
-376 -849 -383 -855 -2 -3 -60 32 -128 76 -149 98 -356 202 -459 230 -90 24
-286 44 -344 34 -152 -25 -333 -150 -395 -275 -16 -33 -33 -83 -36 -112 -6
-46 -3 -61 25 -120 39 -80 117 -158 215 -212 76 -43 350 -134 595 -199 286
-76 351 -96 438 -136 266 -125 455 -329 577 -625 161 -388 129 -854 -86 -1276
-134 -261 -306 -454 -524 -585 -60 -37 -223 -104 -321 -133 -574 -169 -1146
-119 -1689 149 -88 43 -207 110 -265 148 -119 77 -308 226 -316 247 -4 8 113
205 273 459 l278 445 130 -128 c338 -333 506 -430 820 -473 196 -27 326 -2
467 91 125 81 179 165 200 309 21 144 -27 266 -144 363 -84 69 -161 120 -253
166 -96 48 -157 68 -383 127 -265 70 -394 118 -592 223 -233 122 -371 262
-470 477 -73 157 -119 375 -120 563 0 170 66 447 146 605 60 121 178 291 265
382 183 194 390 310 687 387 218 56 401 69 642 44z"/>
</g>
</svg>
